HIERARCHY
ROOT hip
{
  OFFSET 107.329 84.5691 82.1543
  CHANNELS 6 Xposition Yposition Zposition Zrotation Xrotation Yrotation
  JOINT abdomen
  {
    OFFSET 0 20.6881 -0.73152
    CHANNELS 3 Zrotation Xrotation Yrotation
    JOINT chest
    {
      OFFSET 0 11.7043 -0.48768
      CHANNELS 3 Zrotation Xrotation Yrotation
      JOINT neck
      {
        OFFSET 0 22.1894 -2.19456
        CHANNELS 3 Zrotation Xrotation Yrotation
        JOINT head
        {
          OFFSET -0.24384 7.07133 1.2192
          CHANNELS 3 Zrotation Xrotation Yrotation
          JOINT leftEye
          {
            OFFSET 4.14528 8.04674 8.04672
            CHANNELS 3 Zrotation Xrotation Yrotation
            End Site
            {
              OFFSET 1 0 0
            }
          }
          JOINT rightEye
          {
            OFFSET -3.6576 8.04674 8.04672
            CHANNELS 3 Zrotation Xrotation Yrotation
            End Site
            {
              OFFSET 1 0 0
            }
          }
        }
      }
      JOINT rCollar
      {
        OFFSET -2.68224 19.2634 -4.8768
        CHANNELS 3 Zrotation Xrotation Yrotation
        JOINT rShldr
        {
          OFFSET -8.77824 -1.95073 1.46304
          CHANNELS 3 Zrotation Xrotation Yrotation
          JOINT rForeArm
          {
            OFFSET -28.1742 -1.7115 0.48768
            CHANNELS 3 Zrotation Xrotation Yrotation
            JOINT rHand
            {
              OFFSET -22.5879 0.773209 7.07136
              CHANNELS 3 Zrotation Xrotation Yrotation
              JOINT rThumb1
              {
                OFFSET -1.2192 -0.487915 3.41376
                CHANNELS 3 Zrotation Xrotation Yrotation
                JOINT rThumb2
                {
                  OFFSET -3.37035 -0.52449 3.41376
                  CHANNELS 3 Zrotation Xrotation Yrotation
                  End Site
                  {
                    OFFSET -1.78271 -1.18214 1.43049
                  }
                }
              }
              JOINT rIndex1
              {
                OFFSET -7.75947 0.938293 5.60832
                CHANNELS 3 Zrotation Xrotation Yrotation
                JOINT rIndex2
                {
                  OFFSET -2.54057 -0.884171 1.56538
                  CHANNELS 3 Zrotation Xrotation Yrotation
                  End Site
                  {
                    OFFSET -1.62519 -0.234802 1.16502
                  }
                }
              }
              JOINT rMid1
              {
                OFFSET -8.24714 1.18213 3.41376
                CHANNELS 3 Zrotation Xrotation Yrotation
                JOINT rMid2
                {
                  OFFSET -3.10165 -0.590103 1.0647
                  CHANNELS 3 Zrotation Xrotation Yrotation
                  End Site
                  {
                    OFFSET -2.48547 -0.328903 0.83742
                  }
                }
              }
              JOINT rRing1
              {
                OFFSET -8.82822 0.546677 1.51678
                CHANNELS 3 Zrotation Xrotation Yrotation
                JOINT rRing2
                {
                  OFFSET -2.60934 -0.819778 -0.0198488
                  CHANNELS 3 Zrotation Xrotation Yrotation
                  End Site
                  {
                    OFFSET -2.33842 -0.294052 0.168128
                  }
                }
              }
              JOINT rPinky1
              {
                OFFSET -8.27202 -0.0477905 -0.4584
                CHANNELS 3 Zrotation Xrotation Yrotation
                JOINT rPinky2
                {
                  OFFSET -1.82734 -0.647385 -0.700984
                  CHANNELS 3 Zrotation Xrotation Yrotation
                  End Site
                  {
                    OFFSET -1.69225 -0.51767 -0.607171
                  }
                }
              }
            }
          }
        }
      }
      JOINT lCollar
      {
        OFFSET 2.68224 19.2634 -4.8768
        CHANNELS 3 Zrotation Xrotation Yrotation
        JOINT lShldr
        {
          OFFSET 8.77824 -1.95073 1.46304
          CHANNELS 3 Zrotation Xrotation Yrotation
          JOINT lForeArm
          {
            OFFSET 28.1742 -1.7115 0.48768
            CHANNELS 3 Zrotation Xrotation Yrotation
            JOINT lHand
            {
              OFFSET 22.5879 0.773209 7.07136
              CHANNELS 3 Zrotation Xrotation Yrotation
              JOINT lThumb1
              {
                OFFSET 1.2192 -0.487915 3.41376
                CHANNELS 3 Zrotation Xrotation Yrotation
                JOINT lThumb2
                {
                  OFFSET 3.37035 -0.52449 3.41376
                  CHANNELS 3 Zrotation Xrotation Yrotation
                  End Site
                  {
                    OFFSET 1.78271 -1.18214 1.43049
                  }
                }
              }
              JOINT lIndex1
              {
                OFFSET 7.75947 0.938293 5.60832
                CHANNELS 3 Zrotation Xrotation Yrotation
                JOINT lIndex2
                {
                  OFFSET 2.54057 -0.884171 1.56538
                  CHANNELS 3 Zrotation Xrotation Yrotation
                  End Site
                  {
                    OFFSET 1.62519 -0.234802 1.16502
                  }
                }
              }
              JOINT lMid1
              {
                OFFSET 8.24714 1.18213 3.41376
                CHANNELS 3 Zrotation Xrotation Yrotation
                JOINT lMid2
                {
                  OFFSET 3.10165 -0.590103 1.0647
                  CHANNELS 3 Zrotation Xrotation Yrotation
                  End Site
                  {
                    OFFSET 2.48547 -0.328903 0.83742
                  }
                }
              }
              JOINT lRing1
              {
                OFFSET 8.82822 0.546677 1.51678
                CHANNELS 3 Zrotation Xrotation Yrotation
                JOINT lRing2
                {
                  OFFSET 2.60934 -0.819778 -0.0198488
                  CHANNELS 3 Zrotation Xrotation Yrotation
                  End Site
                  {
                    OFFSET 2.33842 -0.294052 0.168128
                  }
                }
              }
              JOINT lPinky1
              {
                OFFSET 8.27202 -0.0477905 -0.4584
                CHANNELS 3 Zrotation Xrotation Yrotation
                JOINT lPinky2
                {
                  OFFSET 1.82734 -0.647385 -0.700984
                  CHANNELS 3 Zrotation Xrotation Yrotation
                  End Site
                  {
                    OFFSET 1.69225 -0.51767 -0.607171
                  }
                }
              }
            }
          }
        }
      }
    }
  }
  JOINT rButtock
  {
    OFFSET -8.77824 4.35084 1.2192
    CHANNELS 3 Zrotation Xrotation Yrotation
    JOINT rThigh
    {
      OFFSET 0 -1.70687 -2.19456
      CHANNELS 3 Zrotation Xrotation Yrotation
      JOINT rShin
      {
        OFFSET 0 -36.8199 0.73152
        CHANNELS 3 Zrotation Xrotation Yrotation
        JOINT rFoot
        {
          OFFSET 0.73152 -45.1104 -5.12064
          CHANNELS 3 Zrotation Xrotation Yrotation
          End Site
          {
            OFFSET -1.1221 -3.69964 12.103
          }
        }
      }
    }
  }
  JOINT lButtock
  {
    OFFSET 8.77824 4.35084 1.2192
    CHANNELS 3 Zrotation Xrotation Yrotation
    JOINT lThigh
    {
      OFFSET 0 -1.70687 -2.19456
      CHANNELS 3 Zrotation Xrotation Yrotation
      JOINT lShin
      {
        OFFSET 0 -36.8199 0.73152
        CHANNELS 3 Zrotation Xrotation Yrotation
        JOINT lFoot
        {
          OFFSET -0.73152 -45.1104 -5.12064
          CHANNELS 3 Zrotation Xrotation Yrotation
          End Site
          {
            OFFSET 1.1221 -3.69964 12.103
          }
        }
      }
    }
  }
}
MOTION
Frames:	6
Frame Time:	0.00833333
1.78444 84.2163 -155.525 19.5343 -1.83285 -108.814 6.42891 -12.9211 -6.7639 2.91305 0.922615 -2.0073 -2.48926 8.0802 -14.9726 8.27118 -10.5296 -27.7253 -0 0 0 -0 0 0 7.68398e-014 9.06378e-013 -8.05994e-014 62.2503 57.2773 11.7553 -24.2364 -19.5512 50.3642 -0.291875 -15.1959 -2.1877 4.35929e-010 7.84446e-010 1.84797e-009 7.28135e-010 1.37403e-009 3.19586e-009 4.3593e-010 7.84451e-010 1.84796e-009 7.73091 5.47488 0.417314 4.35927e-010 7.84447e-010 1.84797e-009 2.90554 0.965183 0.102902 4.35928e-010 7.84444e-010 1.84797e-009 10.2786 0.731801 0.0259123 4.35923e-010 7.84446e-010 1.84797e-009 2.22167 -0.733487 -0.20892 7.67275e-014 9.06379e-013 -8.09096e-014 -90.7465 40.0116 22.0786 9.16713 -3.6574 -16.2445 1.32886 -30.9704 4.83158 3.81521e-011 1.58677e-009 1.97797e-009 3.62004e-011 2.74262e-009 3.41607e-009 3.81482e-011 1.58677e-009 1.97798e-009 -7.73091 5.47488 -0.417314 3.81544e-011 1.58677e-009 1.97797e-009 -2.90554 0.965183 -0.102902 3.81529e-011 1.58677e-009 1.97796e-009 -10.2786 0.731801 -0.0259123 3.81595e-011 1.58677e-009 1.97795e-009 -2.22167 -0.733487 0.20892 -2.03217e-016 0 -3.88251e-019 19.4004 -36.3507 24.5575 -0.282407 37.8801 0.7356 -1.88337 -11.5921 -6.61393 2.03217e-016 0 3.88251e-019 0.401249 -54.2017 -0.62075 1.59532 67.2705 -2.37886 -0.0684318 4.08908 -1.69287 
2.33902 84.3184 -155.763 20.2033 -1.15334 -107.644 5.69112 -13.1178 -6.53322 2.69238 1.04785 -1.92858 -2.66732 8.17777 -15.2981 8.67566 -10.9477 -28.3051 -0 0 0 -0 0 0 6.68693e-014 1.39984e-012 -1.77912e-013 61.3079 58.386 12.9485 -24.7879 -20.648 52.2081 -0.298141 -15.3537 -2.21155 1.01815e-009 8.91268e-010 2.91275e-009 1.71818e-009 1.56952e-009 5.04273e-009 1.01815e-009 8.91274e-010 2.91274e-009 7.73091 5.47488 0.417314 1.01815e-009 8.9127e-010 2.91275e-009 2.90554 0.965183 0.102902 1.01815e-009 8.91265e-010 2.91274e-009 10.2786 0.731801 0.0259123 1.01815e-009 8.91267e-010 2.91276e-009 2.22167 -0.733487 -0.20892 6.67184e-014 1.39984e-012 -1.7826e-013 -90.4544 38.4817 22.5916 8.64751 -3.35902 -15.2884 1.17598 -29.2217 4.509 -6.17155e-011 2.704e-009 3.39101e-009 -1.72128e-010 4.67369e-009 5.85592e-009 -6.17195e-011 2.70401e-009 3.39101e-009 -7.73091 5.47488 -0.417314 -6.17129e-011 2.704e-009 3.39101e-009 -2.90554 0.965183 -0.102902 -6.17147e-011 2.704e-009 3.391e-009 -10.2786 0.731801 -0.0259123 -6.17065e-011 2.704e-009 3.39099e-009 -2.22167 -0.733487 0.20892 -2.03217e-016 0 -3.88251e-019 19.0525 -36.1692 25.2456 -0.281194 37.6934 0.739599 -1.7492 -11.8549 -6.05825 2.03217e-016 0 3.88251e-019 -0.340329 -55.0136 -1.40711 1.45782 65.8791 -2.19902 -0.0218124 3.19811 -0.715581 
2.89412 84.4123 -155.988 21.0747 -0.468134 -106.469 4.8441 -13.5855 -6.37559 2.60963 1.22063 -1.86273 -2.8964 8.22358 -15.6472 8.93171 -11.2708 -28.9422 -0 0 0 -0 0 0 1.03814e-013 1.79941e-012 -1.8771e-013 60.2288 59.4634 14.1655 -25.3032 -21.758 54.0241 -0.302695 -15.4645 -2.22835 6.863e-010 9.02339e-010 2.57719e-009 1.15029e-009 1.5815e-009 4.46026e-009 6.86302e-010 9.02344e-010 2.57718e-009 7.73091 5.47488 0.417314 6.86299e-010 9.0234e-010 2.57719e-009 2.90554 0.965183 0.102902 6.86298e-010 9.02336e-010 2.57719e-009 10.2786 0.731801 0.0259123 6.86293e-010 9.02337e-010 2.5772e-009 2.22167 -0.733487 -0.20892 1.03699e-013 1.79941e-012 -1.88024e-013 -90.5594 37.3645 23.4292 8.40899 -3.21472 -14.8713 1.07916 -28.0535 4.2983 -7.64846e-010 2.32167e-009 2.77992e-009 -1.3777e-009 4.0009e-009 4.78762e-009 -7.6485e-010 2.32168e-009 2.77992e-009 -7.73091 5.47488 -0.417314 -7.64843e-010 2.32167e-009 2.77991e-009 -2.90554 0.965183 -0.102902 -7.64846e-010 2.32167e-009 2.77991e-009 -10.2786 0.731801 -0.0259123 -7.64837e-010 2.32167e-009 2.77991e-009 -2.22167 -0.733487 0.20892 -2.03217e-016 0 -3.88251e-019 18.7423 -36.2762 26.0645 -0.28199 37.5671 0.739515 -1.60884 -12.07 -5.52914 2.03217e-016 0 3.88251e-019 -1.10948 -56.0145 -2.25488 1.3263 64.3556 -2.01816 0.0464754 2.41069 0.365704 
3.44917 84.5077 -156.201 22.1197 0.194301 -105.281 3.89596 -14.288 -6.26797 2.63545 1.43441 -1.80484 -3.17653 8.23058 -16.0139 9.09521 -11.5303 -29.6177 -0 0 0 -0 0 0 1.67299e-013 2.19274e-012 -1.55782e-013 59.0417 60.4961 15.3907 -25.7777 -22.8775 55.8294 -0.305148 -15.5248 -2.23748 -1.76402e-010 8.42064e-010 1.40408e-009 -3.22087e-010 1.45926e-009 2.42506e-009 -1.76398e-010 8.42065e-010 1.40407e-009 7.73091 5.47488 0.417314 -1.76404e-010 8.42062e-010 1.40408e-009 2.90554 0.965183 0.102902 -1.76403e-010 8.42059e-010 1.40408e-009 10.2786 0.731801 0.0259123 -1.7641e-010 8.4206e-010 1.4041e-009 2.22167 -0.733487 -0.20892 1.67266e-013 2.19274e-012 -1.56018e-013 -90.9054 36.4568 24.4834 8.41895 -3.22043 -14.889 1.00653 -27.1802 4.14153 -1.85972e-009 1.0426e-009 9.52913e-010 -3.23359e-009 1.77066e-009 1.61156e-009 -1.85973e-009 1.0426e-009 9.52914e-010 -7.73091 5.47488 -0.417314 -1.85972e-009 1.0426e-009 9.52902e-010 -2.90554 0.965183 -0.102902 -1.85972e-009 1.0426e-009 9.52908e-010 -10.2786 0.731801 -0.0259123 -1.85971e-009 1.0426e-009 9.52901e-010 -2.22167 -0.733487 0.20892 -2.03217e-016 0 -3.88251e-019 18.4783 -36.626 27.0021 -0.284668 37.4902 0.735815 -1.46033 -12.2459 -5.01163 2.03217e-016 0 3.88251e-019 -1.93561 -57.1706 -3.18025 1.20393 62.6924 -1.83985 0.137063 1.72235 1.53425 
3.46385 84.5279 -156.216 23.1329 0.876622 -104.138 2.9054 -14.9827 -6.20799 2.67485 1.64571 -1.75628 -3.47984 8.23562 -16.3862 9.24235 -11.7419 -30.3037 -0 0 0 -0 0 0 2.33418e-013 2.39879e-012 -1.0612e-013 57.8421 61.4643 16.5978 -26.2032 -23.9725 57.6013 -0.305524 -15.5352 -2.23904 -1.0726e-009 9.76806e-010 3.7e-010 -1.85372e-009 1.67499e-009 6.29673e-010 -1.07259e-009 9.76803e-010 3.69997e-010 7.73091 5.47488 0.417314 -1.0726e-009 9.76802e-010 3.69998e-010 2.90554 0.965183 0.102902 -1.0726e-009 9.768e-010 3.70007e-010 10.2786 0.731801 0.0259123 -1.07261e-009 9.76801e-010 3.70022e-010 2.22167 -0.733487 -0.20892 2.33468e-013 2.39879e-012 -1.06273e-013 -91.3601 35.7596 25.647 8.5713 -3.31089 -15.1575 0.962566 -26.6687 4.04926 -2.92369e-009 -1.97081e-010 -8.26656e-010 -5.03649e-009 -3.90687e-010 -1.48213e-009 -2.92369e-009 -1.97079e-010 -8.26653e-010 -7.73091 5.47488 -0.417314 -2.92369e-009 -1.97083e-010 -8.2667e-010 -2.90554 0.965183 -0.102902 -2.92369e-009 -1.97079e-010 -8.26659e-010 -10.2786 0.731801 -0.0259123 -2.92368e-009 -1.97078e-010 -8.26665e-010 -2.22167 -0.733487 0.20892 -2.03217e-016 0 -3.88251e-019 18.193 -36.9597 27.91 -0.287859 37.399 0.726903 -1.29767 -12.4 -4.48453 2.03217e-016 0 3.88251e-019 -2.83712 -58.2337 -4.2387 1.08718 60.8957 -1.66192 0.243172 1.05183 2.7025 
4.04161 84.6533 -156.453 23.9083 1.61861 -103.092 1.92984 -15.4272 -6.19245 2.63306 1.81105 -1.7184 -3.77753 8.27534 -16.7524 9.44921 -11.9216 -30.9725 -0 0 0 -0 0 0 2.78262e-013 2.23653e-012 -6.27166e-014 56.7323 62.3494 17.7537 -26.5778 -25.0178 59.3112 -0.303885 -15.4964 -2.23315 -1.50494e-009 1.57293e-009 4.51527e-010 -2.59938e-009 2.70084e-009 7.66649e-010 -1.50494e-009 1.57293e-009 4.51527e-010 7.73091 5.47488 0.417314 -1.50494e-009 1.57292e-009 4.51527e-010 2.90554 0.965183 0.102902 -1.50494e-009 1.57292e-009 4.51539e-010 10.2786 0.731801 0.0259123 -1.50495e-009 1.57293e-009 4.51553e-010 2.22167 -0.733487 -0.20892 2.78354e-013 2.23653e-012 -6.2816e-014 -91.8004 35.2758 26.8196 8.75857 -3.42037 -15.4931 0.953258 -26.586 4.0332 -3.5341e-009 -4.61224e-010 -1.29543e-009 -6.0831e-009 -8.56787e-010 -2.30333e-009 -3.53411e-009 -4.61223e-010 -1.29542e-009 -7.73091 5.47488 -0.417314 -3.5341e-009 -4.61227e-010 -1.29544e-009 -2.90554 0.965183 -0.102902 -3.53411e-009 -4.61222e-010 -1.29543e-009 -10.2786 0.731801 -0.0259123 -3.5341e-009 -4.6122e-010 -1.29543e-009 -2.22167 -0.733487 0.20892 -2.03217e-016 0 -3.88251e-019 17.7951 -37.0289 28.6235 -0.290258 37.2298 0.71123 -1.11398 -12.55 -3.92648 2.03217e-016 0 3.88251e-019 -3.80412 -58.9543 -5.46074 0.972887 58.9715 -1.48238 0.360286 0.318084 3.78288 
